<mxfile host="app.diagrams.net" modified="2023-11-30T01:04:07.649Z" agent="Mozilla/5.0 (Windows NT 10.0; Win64; x64) AppleWebKit/537.36 (KHTML, like Gecko) Chrome/119.0.0.0 Safari/537.36 Edg/119.0.0.0" etag="8yBztL6Df3yURPNzhD67" version="22.1.4" type="device">
  <diagram name="Page-1" id="3ArYVjJ8fiSZGLfwyBo_">
    <mxGraphModel dx="1209" dy="614" grid="1" gridSize="10" guides="1" tooltips="1" connect="1" arrows="1" fold="1" page="1" pageScale="1" pageWidth="1400" pageHeight="850" math="0" shadow="0">
      <root>
        <mxCell id="0" />
        <mxCell id="1" parent="0" />
        <mxCell id="v8hLRCnBnyfVGMc6EYWg-1" value="Pasien" style="shape=umlActor;verticalLabelPosition=bottom;verticalAlign=top;html=1;" parent="1" vertex="1">
          <mxGeometry x="120" y="220" width="30" height="60" as="geometry" />
        </mxCell>
        <mxCell id="v8hLRCnBnyfVGMc6EYWg-5" value="Loket" style="shape=umlActor;verticalLabelPosition=bottom;verticalAlign=top;html=1;" parent="1" vertex="1">
          <mxGeometry x="940" y="210" width="30" height="60" as="geometry" />
        </mxCell>
        <mxCell id="v8hLRCnBnyfVGMc6EYWg-7" value="isi formulir" style="ellipse;whiteSpace=wrap;html=1;" parent="1" vertex="1">
          <mxGeometry x="345" y="70" width="90" height="40" as="geometry" />
        </mxCell>
        <mxCell id="v8hLRCnBnyfVGMc6EYWg-8" value="bawa bukti formulir" style="ellipse;whiteSpace=wrap;html=1;" parent="1" vertex="1">
          <mxGeometry x="350" y="265" width="110" height="40" as="geometry" />
        </mxCell>
        <mxCell id="v8hLRCnBnyfVGMc6EYWg-9" value="Pasien lama menggunakan mesin APM" style="ellipse;whiteSpace=wrap;html=1;" parent="1" vertex="1">
          <mxGeometry x="560" y="220" width="140" height="50" as="geometry" />
        </mxCell>
        <mxCell id="v8hLRCnBnyfVGMc6EYWg-10" value="Pasien baru registrasi ulang di loket registrasi online&amp;nbsp;" style="ellipse;whiteSpace=wrap;html=1;" parent="1" vertex="1">
          <mxGeometry x="555" y="300" width="150" height="60" as="geometry" />
        </mxCell>
        <mxCell id="v8hLRCnBnyfVGMc6EYWg-16" value="" style="endArrow=classic;html=1;rounded=0;entryX=0;entryY=0.5;entryDx=0;entryDy=0;exitX=1;exitY=0.3333333333333333;exitDx=0;exitDy=0;exitPerimeter=0;" parent="1" source="v8hLRCnBnyfVGMc6EYWg-1" target="v8hLRCnBnyfVGMc6EYWg-7" edge="1">
          <mxGeometry width="50" height="50" relative="1" as="geometry">
            <mxPoint x="200" y="190" as="sourcePoint" />
            <mxPoint x="250" y="140" as="targetPoint" />
          </mxGeometry>
        </mxCell>
        <mxCell id="v8hLRCnBnyfVGMc6EYWg-17" value="" style="endArrow=classic;html=1;rounded=0;entryX=0.014;entryY=0.611;entryDx=0;entryDy=0;entryPerimeter=0;exitX=1;exitY=0.3333333333333333;exitDx=0;exitDy=0;exitPerimeter=0;" parent="1" source="v8hLRCnBnyfVGMc6EYWg-1" target="v8hLRCnBnyfVGMc6EYWg-8" edge="1">
          <mxGeometry width="50" height="50" relative="1" as="geometry">
            <mxPoint x="200" y="190" as="sourcePoint" />
            <mxPoint x="250" y="140" as="targetPoint" />
          </mxGeometry>
        </mxCell>
        <mxCell id="v8hLRCnBnyfVGMc6EYWg-18" value="" style="endArrow=classic;html=1;rounded=0;exitX=1;exitY=0.5;exitDx=0;exitDy=0;entryX=0;entryY=0.5;entryDx=0;entryDy=0;" parent="1" source="v8hLRCnBnyfVGMc6EYWg-8" target="v8hLRCnBnyfVGMc6EYWg-9" edge="1">
          <mxGeometry width="50" height="50" relative="1" as="geometry">
            <mxPoint x="400" y="380" as="sourcePoint" />
            <mxPoint x="450" y="330" as="targetPoint" />
          </mxGeometry>
        </mxCell>
        <mxCell id="v8hLRCnBnyfVGMc6EYWg-19" value="" style="endArrow=classic;html=1;rounded=0;exitX=1;exitY=0.5;exitDx=0;exitDy=0;entryX=0;entryY=0.5;entryDx=0;entryDy=0;" parent="1" source="v8hLRCnBnyfVGMc6EYWg-8" target="v8hLRCnBnyfVGMc6EYWg-10" edge="1">
          <mxGeometry width="50" height="50" relative="1" as="geometry">
            <mxPoint x="400" y="380" as="sourcePoint" />
            <mxPoint x="450" y="330" as="targetPoint" />
          </mxGeometry>
        </mxCell>
        <mxCell id="v8hLRCnBnyfVGMc6EYWg-20" value="" style="endArrow=classic;html=1;rounded=0;exitX=0;exitY=0.3333333333333333;exitDx=0;exitDy=0;exitPerimeter=0;entryX=1;entryY=0.5;entryDx=0;entryDy=0;" parent="1" source="v8hLRCnBnyfVGMc6EYWg-5" target="v8hLRCnBnyfVGMc6EYWg-10" edge="1">
          <mxGeometry width="50" height="50" relative="1" as="geometry">
            <mxPoint x="400" y="380" as="sourcePoint" />
            <mxPoint x="450" y="330" as="targetPoint" />
          </mxGeometry>
        </mxCell>
        <mxCell id="v8hLRCnBnyfVGMc6EYWg-22" value="datang tepat waktu" style="ellipse;whiteSpace=wrap;html=1;" parent="1" vertex="1">
          <mxGeometry x="345" y="340" width="120" height="50" as="geometry" />
        </mxCell>
        <mxCell id="v8hLRCnBnyfVGMc6EYWg-23" value="" style="endArrow=classic;html=1;rounded=0;exitX=1;exitY=0.3333333333333333;exitDx=0;exitDy=0;exitPerimeter=0;entryX=0;entryY=0.5;entryDx=0;entryDy=0;" parent="1" source="v8hLRCnBnyfVGMc6EYWg-1" target="v8hLRCnBnyfVGMc6EYWg-22" edge="1">
          <mxGeometry width="50" height="50" relative="1" as="geometry">
            <mxPoint x="400" y="300" as="sourcePoint" />
            <mxPoint x="450" y="250" as="targetPoint" />
          </mxGeometry>
        </mxCell>
        <mxCell id="4AB4tkOUuhdPikl5nqCV-1" value="Pasien lama mengisi no. RM, no. whatsapp, pilihan hari dan waktu, kontrol, dan dokter" style="ellipse;whiteSpace=wrap;html=1;" vertex="1" parent="1">
          <mxGeometry x="490" y="20" width="260" height="80" as="geometry" />
        </mxCell>
        <mxCell id="4AB4tkOUuhdPikl5nqCV-5" value="" style="endArrow=classic;html=1;rounded=0;exitX=1;exitY=0.5;exitDx=0;exitDy=0;entryX=0;entryY=0.5;entryDx=0;entryDy=0;" edge="1" parent="1" source="v8hLRCnBnyfVGMc6EYWg-7" target="4AB4tkOUuhdPikl5nqCV-1">
          <mxGeometry width="50" height="50" relative="1" as="geometry">
            <mxPoint x="410" y="250" as="sourcePoint" />
            <mxPoint x="460" y="200" as="targetPoint" />
          </mxGeometry>
        </mxCell>
        <mxCell id="4AB4tkOUuhdPikl5nqCV-6" value="Pasien baru mengisi data lengkap, no. whatsapp, pilihan hari dan waktu, kontrol, dan dokter" style="ellipse;whiteSpace=wrap;html=1;" vertex="1" parent="1">
          <mxGeometry x="490" y="110" width="260" height="80" as="geometry" />
        </mxCell>
        <mxCell id="4AB4tkOUuhdPikl5nqCV-7" value="" style="endArrow=classic;html=1;rounded=0;exitX=1;exitY=0.5;exitDx=0;exitDy=0;entryX=-0.004;entryY=0.388;entryDx=0;entryDy=0;entryPerimeter=0;" edge="1" parent="1" source="v8hLRCnBnyfVGMc6EYWg-7" target="4AB4tkOUuhdPikl5nqCV-6">
          <mxGeometry width="50" height="50" relative="1" as="geometry">
            <mxPoint x="700" y="250" as="sourcePoint" />
            <mxPoint x="750" y="200" as="targetPoint" />
          </mxGeometry>
        </mxCell>
      </root>
    </mxGraphModel>
  </diagram>
</mxfile>
